<svg width="1920" height="596" viewBox="0 0 1920 596" fill="none" xmlns="http://www.w3.org/2000/svg">
<g clip-path="url(#clip0_58_85)">
<rect width="1920" height="596" fill="#3F4100"/>
<path opacity="0.04" d="M29.0791 242.05C14.3263 300.049 6.77893 360.821 6.75508 423.885L6.76932 428.042C8.48516 928.952 437.395 1498.82 991.678 1580.12C1158.31 1604.57 1381.49 1542.66 1434.52 1338.66C1497.73 1095.38 1276.5 746.126 1122.11 583.04C898.465 346.976 612.503 217.432 313.576 154.113C411.927 -7.36122 601.378 -112.877 783.015 -141.794C1318.98 -227.076 1727.39 193.071 1812.74 648.375C1820.07 687.355 1879.52 700.579 1931.79 693.366C1977.1 687.057 2002.94 667.865 2000.12 639.5C1955.51 149.687 1556.93 -248.833 1030.87 -329.677C754.482 -372.132 458.764 -292.229 259.064 -121.056C178.546 -52.0414 116.616 28.0998 74.2253 117.126C-198.995 89.2077 -472.06 106.768 -708.61 140.35C-774.701 149.768 -790.134 172.6 -790.067 191.943C-790.061 193.701 -789.976 195.38 -789.73 197.137C-784.401 235.565 -710.974 267.205 -646.88 258.593C-399.135 225.373 -173.601 220.045 28.9198 242.211L29.0791 242.05ZM402.773 984.91C295.464 795.206 238.439 580.232 245.552 392.614C366.345 644.057 557.621 884.628 784.917 1066.81C810.813 1087.5 895.924 1075.78 915.279 1053.97C924.677 1043.23 924.069 1029.32 913.721 1019.29C696.953 806.06 525.171 584.366 363.283 310.124C599.401 383.809 793.475 507.434 943.903 680.685C1077.79 834.649 1225.04 1082.08 1198.44 1275.76C1187.28 1357.17 1152.02 1403.25 1090.58 1416.73C925.041 1452.94 616.087 1240.11 483.921 1099.81C463.699 1078.3 413.633 1004.14 402.773 984.99L402.773 984.91Z" fill="#B6BD00"/>
<mask id="path-2-inside-1_58_85" fill="white">
<path d="M0 96H1920V596H0V96Z"/>
</mask>
<path d="M1920 596V595H0V596V597H1920V596Z" fill="black" fill-opacity="0.16" mask="url(#path-2-inside-1_58_85)"/>
</g>
<defs>
<clipPath id="clip0_58_85">
<rect width="1920" height="596" fill="white"/>
</clipPath>
</defs>
</svg>
