<svg width="1184" height="809" viewBox="0 0 1184 809" fill="none" xmlns="http://www.w3.org/2000/svg">
<g clip-path="url(#clip0_144_41)">
<rect width="1184" height="809" fill="#595C00"/>
<path d="M65.8674 723.518C56.7104 729.554 48.1874 736.855 40.4006 745.395L39.8895 745.96C-21.7018 814.028 -33.9332 944.162 31.1183 1023.59C50.6736 1047.47 88.5482 1066.62 120.91 1045.53C159.5 1020.38 172.636 945.763 171.85 904.615C170.689 845.034 147.94 792.191 115.261 746.718C148.513 736.983 187.201 746.072 215.375 764.573C298.506 819.17 301.976 926.493 257.343 998.705C253.525 1004.89 259.947 1014.02 267.917 1019.49C274.834 1024.23 280.703 1024.82 283.823 1020.63C338.233 948.771 333.426 845.591 272.141 769.712C239.939 729.848 190.017 704.174 141.838 702.714C122.413 702.126 104.132 705.339 87.4016 712.167C53.8353 674.663 14.6768 643.339 -21.5125 618.693C-31.6279 611.812 -36.5366 613 -38.9149 615.628C-39.1312 615.867 -39.3267 616.105 -39.5103 616.374C-43.5313 622.237 -37.4896 635.586 -27.744 642.33C9.9172 668.407 41.127 695.521 65.826 723.52L65.8674 723.518ZM24.8044 870.272C33.6814 831.33 52.4892 795.17 76.6091 770.632C61.9387 819.602 58.1582 875.799 66.464 928.532C67.418 934.531 80.3945 943.448 85.7078 942.883C88.3068 942.587 89.9408 940.629 89.7775 937.992C86.73 882.353 90.8215 831.119 102.739 773.988C125.63 813.112 136.663 853.812 135.658 895.848C134.793 933.23 124.2 984.923 96.6921 1007.88C85.1336 1017.53 74.6695 1019.42 64.683 1013.66C37.7879 998.135 22.2034 931.171 21.6159 895.853C21.5315 890.443 23.9026 874.217 24.7946 870.283L24.8044 870.272Z" fill="white" fill-opacity="0.04"/>
</g>
<defs>
<clipPath id="clip0_144_41">
<rect width="1184" height="809" fill="white"/>
</clipPath>
</defs>
</svg>
