<svg width="1760" height="462" viewBox="0 0 1760 462" fill="none" xmlns="http://www.w3.org/2000/svg">
<g clip-path="url(#clip0_93_194)">
<rect width="1760" height="462" fill="#37661E"/>
<path d="M185.963 88.8116C173.331 138.471 166.869 190.505 166.849 244.502L166.861 248.061C168.33 676.948 535.569 1164.88 1010.16 1234.49C1152.83 1255.42 1343.92 1202.42 1389.32 1027.75C1443.45 819.445 1254.02 520.41 1121.83 380.773C930.346 178.651 685.5 67.7329 429.554 13.5181C513.763 -124.739 675.974 -215.083 831.496 -239.842C1290.4 -312.862 1640.08 46.8748 1713.16 436.713C1719.44 470.089 1770.34 481.412 1815.09 475.236C1853.89 469.834 1876.01 453.402 1873.6 429.115C1835.4 9.72906 1494.13 -331.49 1043.71 -400.711C807.065 -437.062 553.866 -368.647 382.88 -222.086C313.939 -162.995 260.914 -94.3763 224.618 -18.1504C-9.3182 -42.0547 -243.121 -27.019 -445.659 1.73381C-502.247 9.79786 -515.461 29.3476 -515.404 45.9091C-515.399 47.4146 -515.326 48.8515 -515.115 50.3564C-510.553 83.2588 -447.683 110.35 -392.805 102.976C-180.681 74.5324 12.4246 69.9701 185.826 88.949L185.963 88.8116ZM505.926 724.861C414.046 562.433 365.221 378.369 371.311 217.727C474.736 433.017 638.51 638.998 833.124 794.982C855.296 812.7 928.17 802.664 944.742 783.992C952.788 774.794 952.268 762.888 943.408 754.296C757.808 571.726 610.725 381.908 472.114 147.098C674.282 210.188 840.451 316.038 969.25 464.378C1083.89 596.205 1209.96 808.063 1187.19 973.895C1177.64 1043.6 1147.44 1083.05 1094.84 1094.59C953.1 1125.6 688.568 943.369 575.406 823.24C558.091 804.821 515.224 741.322 505.926 724.929L505.926 724.861Z" fill="white" fill-opacity="0.04"/>
</g>
<defs>
<clipPath id="clip0_93_194">
<rect width="1760" height="462" fill="white"/>
</clipPath>
</defs>
</svg>
